<svg xmlns="http://www.w3.org/2000/svg" xmlns:xlink="http://www.w3.org/1999/xlink" width="500" zoomAndPan="magnify" viewBox="0 0 375 374.999991" height="500" preserveAspectRatio="xMidYMid meet" version="1.0"><defs><clipPath id="8eb02b51a8"><path d="M 76 268 L 177 268 L 177 360.28125 L 76 360.28125 Z M 76 268 " clip-rule="nonzero"/></clipPath><clipPath id="ce2562f9cd"><path d="M 315 116 L 370 116 L 370 173 L 315 173 Z M 315 116 " clip-rule="nonzero"/></clipPath><clipPath id="a4fb7f8e9e"><path d="M 302.714844 129.574219 L 357.453125 111.167969 L 372.035156 154.53125 L 317.296875 172.9375 Z M 302.714844 129.574219 " clip-rule="nonzero"/></clipPath><clipPath id="db43ae5b51"><path d="M 302.714844 129.574219 L 357.453125 111.167969 L 372.035156 154.53125 L 317.296875 172.9375 Z M 302.714844 129.574219 " clip-rule="nonzero"/></clipPath><clipPath id="73600f22df"><path d="M 302 121 L 328 121 L 328 136 L 302 136 Z M 302 121 " clip-rule="nonzero"/></clipPath><clipPath id="0b073a61e1"><path d="M 302.714844 129.574219 L 357.453125 111.167969 L 372.035156 154.53125 L 317.296875 172.9375 Z M 302.714844 129.574219 " clip-rule="nonzero"/></clipPath><clipPath id="d53eb4fca1"><path d="M 302.714844 129.574219 L 357.453125 111.167969 L 372.035156 154.53125 L 317.296875 172.9375 Z M 302.714844 129.574219 " clip-rule="nonzero"/></clipPath></defs><rect x="-37.5" width="450" fill="#ffffff" y="-37.499999" height="449.999989" fill-opacity="1"/><rect x="-37.5" width="450" fill="#f1f5fc" y="-37.499999" height="449.999989" fill-opacity="1"/><path fill="#123b89" d="M 116.652344 302.644531 C 114.542969 304.910156 114.28125 308.910156 116.125 311.386719 C 117.808594 313.757812 122.972656 314.863281 125.972656 313.496094 C 128.660156 312.28125 131.136719 307.699219 130.925781 304.644531 C 126.304688 299.011719 119.820312 299.238281 116.652344 302.644531 Z M 116.652344 302.644531 " fill-opacity="1" fill-rule="nonzero"/><path fill="#123b89" d="M 121.007812 137.992188 C 91.246094 40.121094 93.800781 43.460938 91.03125 42 C 89.0625 40.945312 88.238281 41.542969 77.945312 45.082031 C 55.433594 52.828125 47.710938 56.242188 39.230469 59.40625 C 0.257812 73.976562 3.398438 90.835938 14.109375 126.59375 C 26.878906 167.804688 25.34375 167.363281 27.945312 168.773438 C 30.695312 170.257812 27.21875 169.730469 118.359375 142.90625 C 120.457031 142.273438 121.628906 140.066406 121.007812 137.992188 Z M 54.972656 99.8125 C 61.425781 94.710938 69.890625 94.089844 76.675781 98.8125 C 86.351562 105.378906 86.789062 119.257812 78.359375 126.621094 C 74.410156 130.160156 67.636719 132.203125 63.769531 132.203125 C 54.597656 132.203125 51.132812 122.664062 56.765625 120.933594 C 58.871094 120.300781 61.082031 121.460938 61.714844 123.515625 C 61.769531 123.671875 62.136719 124.039062 62.820312 124.199219 C 65.027344 124.722656 70.703125 122.839844 73.144531 120.722656 C 76.09375 118.089844 77.199219 113.558594 75.832031 109.871094 C 74.460938 106.1875 70.5625 103.5 66.613281 103.5 C 62.820312 103.5 58.449219 106.1875 57.132812 109.714844 C 55.640625 113.566406 50.625 112.839844 49.65625 109.503906 L 43.964844 90.59375 C 43.335938 88.488281 44.441406 86.066406 46.546875 85.433594 L 68.773438 78.746094 C 70.878906 78.113281 73.09375 79.324219 73.722656 81.429688 C 74.304688 83.539062 73.144531 85.695312 71.039062 86.328125 L 52.605469 91.859375 Z M 54.972656 99.8125 " fill-opacity="1" fill-rule="nonzero"/><g clip-path="url(#8eb02b51a8)"><path fill="#123b89" d="M 154.773438 271.125 C 154.148438 269.03125 151.941406 267.839844 149.855469 268.472656 L 79.230469 289.621094 C 77.144531 290.25 75.953125 292.449219 76.582031 294.539062 C 86.703125 328.363281 89.808594 343.820312 100.738281 353.113281 C 109.675781 360.8125 120.839844 360.910156 120.3125 360.792969 C 124.40625 360.792969 148.828125 355.65625 173.914062 349.507812 C 176.101562 348.972656 177.410156 346.703125 176.757812 344.539062 Z M 135.875 318.285156 C 135.71875 317.285156 135.507812 316.339844 135.296875 315.390625 C 133.664062 317.707031 131.609375 319.65625 129.238281 320.710938 C 122.761719 323.660156 113.648438 321.5 109.699219 316.023438 C 105.695312 310.492188 106.222656 302.277344 110.855469 297.273438 C 118.339844 289.0625 132.519531 291.148438 138.984375 302.484375 C 141.722656 307.332031 143.089844 313.652344 143.671875 316.96875 C 146.339844 332.601562 130.96875 345.414062 116.808594 336.773438 C 114.964844 335.617188 114.4375 333.140625 115.542969 331.296875 C 116.703125 329.453125 119.179688 328.875 121.023438 330.03125 C 125.078125 332.5625 128.238281 332.351562 132.292969 329.136719 C 134.503906 327.398438 136.769531 323.554688 135.875 318.285156 Z M 135.875 318.285156 " fill-opacity="1" fill-rule="nonzero"/></g><path fill="#123b89" d="M 356.71875 104.179688 C 356.058594 102.132812 353.878906 100.992188 351.824219 101.609375 L 294.175781 118.875 C 292.085938 119.5 290.898438 121.703125 291.527344 123.792969 L 308.496094 180.457031 C 309.007812 182.167969 310.578125 183.273438 312.277344 183.273438 C 313.394531 183.273438 309.832031 184.117188 371.421875 165.738281 C 373.484375 165.121094 374.671875 162.96875 374.089844 160.890625 C 368.789062 141.898438 362.332031 121.5625 356.71875 104.179688 Z M 356.71875 104.179688 " fill-opacity="1" fill-rule="nonzero"/><path fill="#123b89" d="M 343.800781 183.710938 L 258.910156 209.140625 L 235.234375 130.078125 C 322.765625 103.40625 320.476562 105.660156 321.941406 102.867188 C 322.4375 101.925781 322.53125 100.824219 322.203125 99.8125 C 315.777344 80.0625 309.660156 61.730469 307.835938 55.648438 C 295.917969 14.746094 285.125 16.183594 255.144531 19.988281 C 215.207031 25.191406 154.308594 42.730469 115.980469 55.46875 C 113.949219 56.140625 112.824219 58.304688 113.441406 60.351562 L 140.363281 150.242188 C 53.328125 176.753906 55.871094 174.457031 54.402344 177.199219 C 52.9375 179.914062 53.421875 176.488281 80.039062 266.832031 C 80.671875 268.949219 82.894531 270.101562 84.957031 269.484375 L 168.574219 244.441406 L 194.652344 331.511719 C 195.261719 333.550781 197.359375 334.714844 199.375 334.214844 C 229.289062 326.867188 345.246094 297.792969 361.777344 272.011719 C 365.308594 266.527344 367.019531 251.847656 348.738281 186.433594 C 348.144531 184.304688 345.9375 183.085938 343.800781 183.710938 Z M 173.875 234.605469 L 150.199219 155.546875 L 227.667969 132.34375 L 251.34375 211.40625 Z M 260.210938 27.242188 C 283.949219 23.691406 290.515625 24.449219 300.269531 57.914062 C 302.058594 63.882812 306.746094 77.90625 313.4375 98.410156 L 232.96875 122.507812 C 231.191406 116.574219 217.953125 72.375 207.464844 37.355469 C 234.589844 30.6875 245.90625 29.386719 260.210938 27.242188 Z M 199.785156 39.246094 L 225.398438 124.773438 C 224.539062 125.03125 149.320312 147.5625 147.929688 147.976562 L 122.109375 61.761719 C 149.289062 52.824219 177.414062 44.789062 199.785156 39.246094 Z M 86.472656 260.78125 L 62.792969 181.722656 L 142.628906 157.8125 L 166.304688 236.875 Z M 201.140625 325.640625 L 176.140625 242.175781 L 253.609375 218.976562 L 279.027344 303.839844 C 250.835938 312.84375 221.871094 320.492188 201.140625 325.640625 Z M 355.128906 267.734375 C 351.804688 272.929688 338.433594 284.113281 286.539062 301.390625 L 261.179688 216.707031 L 342.207031 192.441406 C 358.796875 252.621094 356.800781 265.144531 355.128906 267.734375 Z M 355.128906 267.734375 " fill-opacity="1" fill-rule="nonzero"/><path fill="#123b89" d="M 243.050781 66.972656 C 245.117188 67.695312 247.367188 66.605469 248.082031 64.546875 C 250.839844 56.667969 257.480469 55.125 260.539062 57.949219 C 266.679688 63.597656 256.402344 82.554688 251.882812 89.578125 C 249.71875 92.921875 252.117188 97.332031 256.089844 97.332031 C 257.542969 97.332031 256.589844 97.34375 277.515625 90.375 C 279.582031 89.675781 280.695312 87.433594 279.992188 85.371094 C 279.300781 83.300781 277.046875 82.191406 274.988281 82.890625 L 262.511719 87.101562 C 266.125 80.414062 270.757812 69.925781 270.359375 62.339844 C 269.453125 45.257812 247.136719 43.320312 240.625 61.9375 C 239.90625 63.996094 240.992188 66.25 243.050781 66.972656 Z M 243.050781 66.972656 " fill-opacity="1" fill-rule="nonzero"/><path fill="#123b89" d="M 130.777344 220.101562 L 121.15625 222.984375 L 110.691406 188.042969 C 109.726562 184.820312 105.378906 184.171875 103.558594 187.082031 L 94.375 201.769531 C 93.21875 203.617188 93.78125 206.054688 95.628906 207.210938 C 97.480469 208.363281 99.914062 207.808594 101.074219 205.957031 L 105.628906 198.675781 L 113.589844 225.25 L 103.984375 228.125 C 99.644531 229.429688 100.59375 235.863281 105.117188 235.863281 C 106.230469 235.863281 105.070312 235.988281 133.046875 227.671875 C 135.132812 227.046875 136.320312 224.84375 135.695312 222.757812 C 135.070312 220.664062 132.863281 219.480469 130.777344 220.101562 Z M 130.777344 220.101562 " fill-opacity="1" fill-rule="nonzero"/><path fill="#123b89" d="M 237.890625 266.449219 C 233.113281 264.550781 228.351562 265.890625 224.265625 267.300781 C 222.125 268.03125 219.847656 269.339844 217.921875 271.234375 L 217.015625 268.226562 C 216.003906 263.796875 217.601562 259.234375 220.980469 256.875 C 224.507812 254.429688 229.671875 254.347656 233.265625 256.691406 C 235.089844 257.890625 237.535156 257.371094 238.730469 255.546875 C 239.925781 253.71875 239.410156 251.273438 237.585938 250.078125 C 231.316406 245.984375 222.628906 246.109375 216.46875 250.390625 C 210.46875 254.574219 207.59375 262.449219 209.382812 270.234375 L 213.152344 282.738281 C 214.652344 290.832031 221.613281 297.429688 230.324219 297.429688 C 240.652344 297.429688 248.925781 288.78125 248.097656 279.746094 C 247.628906 274.640625 242.863281 268.425781 237.890625 266.449219 Z M 228.460938 289.339844 C 225.148438 288.644531 222.320312 285.929688 221.160156 282.242188 C 221.328125 276.929688 225.890625 275.089844 226.832031 274.765625 C 230.339844 273.5625 232.929688 272.976562 234.976562 273.796875 C 237.183594 274.667969 240.03125 278.285156 240.230469 280.464844 C 240.6875 285.460938 234.601562 290.660156 228.460938 289.339844 Z M 228.460938 289.339844 " fill-opacity="1" fill-rule="nonzero"/><path fill="#123b89" d="M 326.5 242.066406 C 333.90625 232.539062 324.382812 218.929688 312.78125 219.433594 C 303.101562 219.917969 299.554688 226.0625 297.363281 232.015625 C 296.609375 234.0625 297.65625 236.328125 299.703125 237.085938 C 301.75 237.84375 304.023438 236.792969 304.777344 234.742188 C 306.789062 229.277344 308.75 227.542969 313.175781 227.324219 C 317.070312 227.101562 321.210938 230.84375 321.246094 234.929688 C 321.269531 237.5625 316.421875 241.082031 311.722656 242.964844 C 309.710938 243.765625 308.722656 246.046875 309.511719 248.066406 C 310.296875 250.082031 312.570312 251.097656 314.589844 250.324219 C 317.585938 249.195312 324.207031 248.359375 326.171875 250.820312 C 328.542969 253.777344 327.949219 258.941406 324.96875 261.296875 C 322.058594 263.582031 316.128906 265.828125 312.59375 262.097656 C 311.09375 260.507812 308.585938 260.441406 307.007812 261.949219 C 301.21875 267.429688 316.589844 277.945312 329.859375 267.5 C 338.40625 260.761719 337.300781 245.339844 326.5 242.066406 Z M 326.5 242.066406 " fill-opacity="1" fill-rule="nonzero"/><path fill="#123b89" d="M 214.191406 179.335938 C 214.195312 179.324219 214.199219 179.320312 214.199219 179.3125 C 219.699219 168.679688 210.664062 155.421875 197.441406 157.195312 C 190.652344 158.132812 184.839844 163.542969 183.613281 170.066406 C 182.355469 176.773438 186.03125 183.699219 192.078125 186.324219 C 183.867188 196.816406 191.867188 209.980469 204.574219 209.980469 C 212.875 209.980469 221.277344 204.390625 223.214844 196.050781 C 224.765625 189.378906 221.359375 181.582031 214.191406 179.335938 Z M 191.378906 171.519531 C 192.59375 165.066406 201.804688 162.410156 206.285156 167.980469 C 208.003906 170.121094 208.382812 173.363281 207.183594 175.683594 C 206.261719 177.46875 204.066406 179.070312 202.179688 179.34375 C 200.214844 179.554688 197.75 179.957031 195.628906 179.238281 C 192.777344 178.265625 190.789062 174.660156 191.378906 171.519531 Z M 215.519531 194.261719 C 214.851562 197.136719 212.421875 199.765625 209.175781 201.121094 C 198.996094 205.363281 189.679688 194.164062 203.914062 187.082031 C 206.800781 186.691406 210.3125 186.023438 212.679688 187.214844 C 214.890625 188.332031 216.164062 191.492188 215.519531 194.261719 Z M 215.519531 194.261719 " fill-opacity="1" fill-rule="nonzero"/><path fill="#123b89" d="M 165.074219 106.886719 L 177.542969 102.976562 C 178.925781 107.609375 179.3125 108.894531 180.820312 113.886719 C 181.472656 115.96875 183.566406 116.707031 185.621094 116.070312 C 187.695312 115.429688 188.738281 112.832031 188.113281 110.75 C 188.113281 110.75 186.832031 106.472656 185.082031 100.617188 L 189.765625 99.148438 C 191.847656 98.496094 193.007812 96.277344 192.355469 94.199219 C 191.699219 92.113281 189.484375 90.941406 187.40625 91.609375 L 182.824219 93.042969 C 180.625 85.644531 178.253906 77.628906 176.820312 72.65625 C 175.671875 68.640625 171.128906 68.574219 171.65625 68.761719 C 169.25 68.761719 167.171875 70.3125 166.488281 72.632812 C 163.882812 81.46875 161.105469 90.566406 158.273438 100.21875 C 157.074219 104.308594 160.902344 108.164062 165.074219 106.886719 Z M 171.628906 83.066406 C 172.773438 86.945312 174.054688 91.269531 175.285156 95.40625 L 167.179688 97.949219 C 168.609375 93.136719 170.992188 85.195312 171.628906 83.066406 Z M 171.628906 83.066406 " fill-opacity="1" fill-rule="nonzero"/><g clip-path="url(#ce2562f9cd)"><g clip-path="url(#a4fb7f8e9e)"><g clip-path="url(#db43ae5b51)"><path fill="#ffffff" d="M 345.820312 116.445312 L 336.769531 119.488281 L 335.996094 143.332031 L 339.109375 142.285156 C 341.613281 141.445312 343.3125 139.117188 343.335938 136.476562 L 343.476562 124.578125 L 358.089844 143.414062 L 335.761719 150.921875 L 335.449219 160.542969 L 331.441406 161.890625 L 325.195312 143.324219 C 324.070312 139.976562 320.445312 138.183594 317.105469 139.304688 L 315.828125 139.734375 L 324.105469 164.355469 L 315.398438 167.285156 L 317.261719 172.824219 L 335.253906 166.777344 C 337.589844 165.992188 339.535156 164.519531 340.925781 162.617188 C 341.03125 162.472656 341.136719 162.320312 341.238281 162.167969 C 342.433594 160.363281 343.121094 158.210938 343.15625 155.945312 L 343.179688 154.289062 L 369.304688 145.503906 Z M 345.820312 116.445312 " fill-opacity="1" fill-rule="nonzero"/></g></g></g><g clip-path="url(#73600f22df)"><g clip-path="url(#0b073a61e1)"><g clip-path="url(#d53eb4fca1)"><path fill="#ffffff" d="M 327.46875 121.25 L 302.71875 129.574219 L 304.582031 135.117188 L 323.800781 128.652344 C 326.859375 127.625 328.496094 124.308594 327.46875 121.25 Z M 327.46875 121.25 " fill-opacity="1" fill-rule="nonzero"/></g></g></g></svg>